inDegrees=yes
name=ik_data_2024_11_07_17_49
DataType=double
version=3
OpenSimVersion=4.5.1
endheader
time	pelvis_tilt	pelvis_list	pelvis_rotation	pelvis_tx	pelvis_ty	pelvis_tz	hip_flexion_r	hip_adduction_r	hip_rotation_r	knee_angle_r	knee_angle_r_beta	ankle_angle_r	subtalar_angle_r	mtp_angle_r	hip_flexion_l	hip_adduction_l	hip_rotation_l	knee_angle_l	knee_angle_l_beta	ankle_angle_l	subtalar_angle_l	mtp_angle_l	lumbar_extension	lumbar_bending	lumbar_rotation	arm_flex_r	arm_add_r	arm_rot_r	elbow_flex_r	pro_sup_r	wrist_flex_r	wrist_dev_r	arm_flex_l	arm_add_l	arm_rot_l	elbow_flex_l	pro_sup_l	wrist_flex_l	wrist_dev_l
22.56544	0.2107436306109371	-0.2490336287653142	-91.72441289567335	0	0.9399999999999999	0	-9.314721472164385	-4.436184240185947	31.84655241824748	0.00553126874762255	9.653885145867677e-05	-4.978685022804353	0	0	0.0217121119925558	0.2087547523348635	-0.05413531286457435	0.5118333321230732	0.008933176867001286	-4.978685022804353	0	0	0	0	0	0	-8.248509770895522	0	64.59153639924313	44.44586535902529	0	0	0	-8.248509770895522	0	64.59153639924313	44.44586535902529	0	0
22.61488	0.4127732246122381	-0.9337525216864205	-91.70442751079106	0	0.9399999999999999	0	-10.08137978798971	-4.448006648508186	30.97691846732959	0.005767787009303809	0.0001006668738661083	-4.97878812414384	0	0	-0.6572103802073868	0.4293213762168012	-0.0346216455897011	0.5099513592216099	0.008900330243437442	-4.97878812414384	0	0	0	0	0	0	-8.252093041720485	0	64.60297380926831	44.44753340316304	0	0	0	-8.252093041720485	0	64.60297380926831	44.44753340316304	0	0
22.68088	0.2841002893877875	-0.8058210676931972	-91.75121997526979	0	0.9399999999999999	0	-9.753052306741276	-3.294510869622361	29.43665410619898	0.006223793602944395	0.0001086256903359403	-4.978961395125976	0	0	-0.5279680609297915	0.3069685447039337	-0.09136070126924137	0.5054205723762017	0.00882125309527902	-4.978961395125976	0	0	0	0	0	0	-8.260681345702832	0	64.62698991510607	44.45052442615587	0	0	0	-8.260681345702832	0	64.62698991510607	44.45052442615587	0	0
22.68704	0.1993902031866773	-0.7074051510461953	-91.73320910244507	0	0.9399999999999999	0	-9.569736029539303	-2.996555934122788	28.59563049958283	0.006453202811699522	0.0001126296363631123	-4.979080733767132	0	0	-0.4375206793690264	0.1983187875640037	-0.07260896036285562	0.5099165549859196	0.008899722794931004	-4.979080733767132	0	0	0	0	0	0	-8.266413659883955	0	64.64347714666762	44.45260509551593	0	0	0	-8.266413659883955	0	64.64347714666762	44.45260509551593	0	0
22.73774	0.1936689676353309	-0.6390870537351453	-91.70610894465007	0	0.9399999999999999	0	-9.873590939245531	-3.174079377369481	30.03992217396217	0.006220961312926947	0.0001085762575497645	-4.979144759335079	0	0	-0.3681875283473284	0.2014674107956085	-0.03522542777749473	0.5132784243122277	0.008958398483696884	-4.979144759335079	0	0	0	0	0	0	-8.268764691320444	0	64.65063812236235	44.45362623575325	0	0	0	-8.268764691320444	0	64.65063812236235	44.45362623575325	0	0
22.80138	0.09631183060325006	-0.5834915266415405	-91.69436454402975	0	0.9399999999999999	0	-10.16183933112864	-3.502304187552371	31.87367563836784	0.00595112671208004	0.0001038667553291813	-4.979200680016549	0	0	-0.3329405214990939	0.1074754515878969	-0.01653493971405051	0.4912572062848956	0.008574055723820409	-4.979200680016549	0	0	0	0	0	0	-8.270821717568227	0	64.65690252646174	44.45451889292212	0	0	0	-8.270821717568227	0	64.65690252646174	44.45451889292212	0	0
22.86349	0.09264393967261803	-0.5966534321254015	-91.70082253776152	0	0.9399999999999999	0	-10.32985942243994	-3.747162825630171	33.297113156287	0.005779013421431172	0.0001008628117209166	-4.979260937197008	0	0	-0.3322941307033546	0.1018870134233798	-0.02699303541956995	0.5056463192873621	0.008825193122154977	-4.979260937197008	0	0	0	0	0	0	-8.273046227840885	0	64.66367329823294	44.45548219477911	0	0	0	-8.273046227840885	0	64.66367329823294	44.45548219477911	0	0
22.8667	0.04981641618441077	-0.6080882105450565	-91.70116790953536	0	0.9399999999999999	0	-10.4342750110499	-3.703822046116917	34.11715065228849	0.0057008673296467	9.949890512171185e-05	-4.979320704537138	0	0	-0.3446449193394182	0.0563384971225984	-0.03405819446912089	0.5099623655485892	0.00890052234008178	-4.979320704537138	0	0	0	0	0	0	-8.275298063947119	0	64.67049728725252	44.4564441126138	0	0	0	-8.275298063947119	0	64.67049728725252	44.4564441126138	0	0
22.9181	-0.02603042408232174	-0.5448156227097547	-91.71424062484952	0	0.9399999999999999	0	-10.24114221456443	-3.475426151259335	33.47590869500004	0.005824322521196547	0.000101653604692937	-4.979417186375301	0	0	-0.2809125657859654	-0.01870786861511762	-0.04411898802758993	0.5099957873096739	0.008901105659854523	-4.979417186375301	0	0	0	0	0	0	-8.279687290514758	0	64.68329086926809	44.45809971574742	0	0	0	-8.279687290514758	0	64.68329086926809	44.45809971574742	0	0
22.98416	0.01283560720390656	-0.4549198954356355	-91.71818573815128	0	0.9399999999999999	0	-9.971857117292908	-2.967624440185231	32.59139802466201	0.006075660261742298	0.0001060402757999836	-4.979535558945808	0	0	-0.1906585105087428	0.01642037796698567	-0.04802588758510123	0.5088074167489405	0.008880364680835954	-4.979535558945808	0	0	0	0	0	0	-8.285245688884322	0	64.69922073384662	44.46013372404192	0	0	0	-8.285245688884322	0	64.69922073384662	44.46013372404192	0	0
